<svg width="369" height="280" fill="none" xmlns="http://www.w3.org/2000/svg"><g clip-path="url(#clip0)"><path opacity=".08" d="M338.2 144.4s24.8 9.8 23.4 50.6c-6.7 58.7-82.6 77.7-123.9 48.9-75.7-45.3-154.4 37.9-198 8.2-47.9-41.4-5.2-120.2 91.8-127.2C287 106 104.2 9.2 338.2 144.4z" fill="url(#paint0_linear)"/><path d="M131.698 247.1h63.6c7.1 0 12.8-5.7 12.8-12.8v-81.6c0-7.1-5.7-12.8-12.8-12.8h-63.6c-7.1 0-12.8 5.7-12.8 12.8v81.6c0 7.1 5.7 12.8 12.8 12.8z" fill="#8BB9FF"/><path d="M187.499 204.8h83.1c7.1 0 12.8-5.7 12.8-12.8V83.2c0-7.1-5.7-12.8-12.8-12.8h-83.1c-7.1 0-12.8 5.7-12.8 12.8V192c0 7.1 5.7 12.8 12.8 12.8z" fill="#DEEBFF"/><path d="M243.202 34.2h-99.6c-5 0-9 3.5-9 7.9V122c0 4.4 4 7.9 9 7.9h99.6c5 0 9-3.5 9-7.9V42.1c0-4.4-4.1-7.9-9-7.9z" fill="#8BB9FF"/><path opacity=".08" d="M.6 54.3C-4.8 22.4 21.3 3 39.1 2.1c40.5-8 73.101 13.1 78.601 31.1s-13 49.6-50.5 63.3C29.8 110.2 6.1 86.2.6 54.3z" fill="url(#paint1_linear)"/><path d="M290.299 218.7l.1-1.2c0-1.6 1.2-3.2 2.5-3.9 1.6-.7 3.2-.7 4.8.2l1 .6c1.1.8 2.7.5 3.5-.5.4-.5 1-1.3 1.3-2.1.8-1.3.3-2.6-.7-3.4l-1-.6c-1.3-1-2.3-2.5-2-4.2 0-1.6 1.2-3.2 2.5-3.9l1.1-.6c1.1-.6 1.8-2.2 1.2-3.2-.1-.5-.3-.7-.4-1.1-.3-.4-.3-.7-.6-1.1-.6-1.1-2.1-1.6-3.4-.9l-.9.4c-1.6.7-3.2.7-4.8-.2-1.3-1-2.3-2.5-2-4.2l.1-1.2c0-1.4-.8-2.5-2.3-2.7-.7-.1-1.7-.2-2.4-.1-1.4 0-2.4 1.1-2.5 2.5l-.3 1c0 1.6-1.2 3.2-2.5 3.9-1.6.7-3.2.7-4.8-.2l-1-.6c-1.1-.8-2.7-.5-3.5.5-.4.5-1 1.3-1.3 2.1-.8 1.3-.3 2.6.7 3.4l1 .6c1.3 1 2.3 2.5 2 4.2 0 1.6-1.2 3.2-2.5 3.9l-.9.6c-1.1.6-1.8 2.2-1.2 3.2.1.5.3.7.4 1.1.3.4.3.7.6 1.1.6 1.1 2.1 1.6 3.4.9l1.1-.6c1.6-.7 3.2-.7 4.8.2 1.3 1 2.3 2.5 2 4.2l-.1 1.2c0 1.4.8 2.5 2.3 2.7.7.1 1.7.2 2.4.1 1.3.1 2.3-.9 2.3-2.1zm-8.1-13.2c-1.6-3-.3-6.8 2.8-8.2 3.1-1.6 6.8-.3 8.2 2.8 1.6 3 .3 6.8-2.8 8.2-3 1.4-6.8.3-8.2-2.8z" fill="#DBB7F3"/><path d="M222.802 39.9v-1.5c0-9.5 7.8-17.2 17.2-17.2 2.3 0 4.6.4 6.5 1.3 2.7-8 10.3-13.7 19.3-13.7 10.7 0 19.5 8.4 20.4 18.9 1.7-.8 3.6-1.5 5.7-1.5 6.9 0 12.6 5.7 12.6 12.6v.6c7.1.2 12.6 6.1 12.6 13.2 0 7.4-5.9 13.2-13.2 13.2h-78.7c-7.3.2-13.2-5.7-13.2-13-.1-6.4 4.5-11.8 10.8-12.9z" fill="#8BB9FF"/><path fill-rule="evenodd" clip-rule="evenodd" d="M92.201 243.9c-2.5.3-5.1-.2-5 1 .1 1.1.1 2.5.1 4.4 0 1.6 0 3.9-.6 5.6-.4 1.2-1 2.4-1.3 3.5-.3.8-.2 1.8.2 2.5.4.8 1.2 1.3 2.3 1.4 1.2.1 2.6-.3 5.3-.5 2.7-.3 6.6-.4 8.7-.9 2.2-.4 2.6-1.1 1.7-1.8-1-.7-3.2-1.2-5.2-1.9-1.9-.7-2.8.3-3.7-2.1-.9-2.2-.3-7.2-.1-9.3.4-2-.5-2.1-2.4-1.9z" fill="#FDB092"/><path fill-rule="evenodd" clip-rule="evenodd" d="M87.298 249.3c0-1.9 0-3.3-.1-4.4-.1-1.1 2.5-.7 5-1 1.9-.2 2.7-.1 2.5 2-.2 1.4-.5 4-.4 6.2h-7v-2.8z" fill="#F38A7C"/><path fill-rule="evenodd" clip-rule="evenodd" d="M113.298 262.7c-.3-.9-1.1-1.7-2.4-2.4-1.3-.8-3.1-1.5-5.5-2.2-2.4-.7-5.5-1.4-7.2-1.7-1.7-.4-2.1-.4-2.4-.5.2-.1.3-.2.6-.7.3-.5.8-1.3 1.1-1.9.4-.6.6-1 .8-1.4-.3-.3-.7-.6-1.2-.7-.5-.1-1.2.2-1.8.4-.1 1-.2 2-.4 2.6-.2.7-.3 1-.6 1.5s-.9 1.2-1.7 1.7c-.9.5-2 .9-3.3 1-1.3.2-2.6.1-3.9 0-.1.2-.2.4-.3 1.1-.1.6-.2 1.7-.1 2.8.1 1.1.2 2.2 1.5 2.7s3.8.5 5.2.4c1.3-.2 1.4-.5 1.7-.7.3-.2.6-.3.9-.2.3.1.5.5 3.7.6 3.2.2 9.3.2 12.4-.3 3.1-.3 3.3-1.2 2.9-2.1z" fill="#7427CA"/><path fill-rule="evenodd" clip-rule="evenodd" d="M98.502 255.9c.3.1.4.1.1.7-.3.6-1.2 1.7-1.9 2.5s-1.4 1.3-1.8 1.5c-.5.1-.8-.2-.4-1 .5-.9 1.7-2.3 2.5-3 .8-.9 1.2-.8 1.5-.7zM101.599 256.6c.3.1.4.1.1.6-.3.5-1 1.5-1.7 2.2-.6.7-1.2 1.2-1.6 1.3-.4.1-.7-.1-.3-.9.4-.8 1.5-2 2.2-2.6.8-.7 1.1-.6 1.3-.6zM104.7 257.4c.2.1.3.1.1.5-.2.4-.8 1.1-1.3 1.7-.5.6-.9.9-1.2 1-.4.1-.6-.1-.3-.7s1.2-1.6 1.7-2.1c.7-.5.9-.4 1-.4z" fill="#fff"/><path fill-rule="evenodd" clip-rule="evenodd" d="M100.2 263.5c-2.5-.1-4.5-.4-5.6-.6-1.1-.2-1.2-.3-1.6-.2-.4.1-1.1.4-2 .5-.8.2-1.8.3-2.6.2-.8-.1-1.5-.3-1.9-.6-.4-.3-.5-.8-.7-1.2-.2-.4-.5-.6-.7-.5-.1 0-.1.1-.1.1v1.2c.1 1.1.2 2.2 1.5 2.7s3.8.5 5.2.4c1.3-.2 1.4-.5 1.7-.7.3-.2.6-.3.9-.2.3.1.5.5 3.7.6 3.2.2 9.3.2 12.4-.3 3.1-.5 3.3-1.3 3-2.2-.2-.5-.5-1-1-1.4.2.2.4.4-.2.7-.6.3-1.9.8-4.1 1.1-2.2.3-5.3.6-7.9.4z" fill="#5D19AB"/><path fill-rule="evenodd" clip-rule="evenodd" d="M68.8 138.4s8 27.7 11.6 39.6c3.6 12 4.2 24.5 4.5 38.3.4 13.8-.6 32.4 0 32.8.6.4 12.1 0 12.1 0s3.401-36.8 4.201-50.7c.8-14-5.9-50.2-8-59.2l-24.4-.8z" fill="#5952BA"/><path fill-rule="evenodd" clip-rule="evenodd" d="M33.7 236.5c-.8.3-2.1-.5-2.9 1.3-.8 1.8-2.3 5.4-3.3 7.6-.6 1.3-2.5 2.7-3.2 3.7-.7 1-1.1 1.3-1.1 2.3 0 1.1.2 1.5 1.3 2.4 1.1.8 3 1.4 4.7 2.2 1.7.8 6 2.9 7.6 3.5 1.6.5 3 1 2.5-.7-.5-1.6-2.3-2.6-3.4-4.3-1.1-1.7-2.3-1.9-1.7-5 .6-3.1 4.4-8.5 5.5-11.9.7-2.1-4.6-1.6-6-1.1z" fill="#FDB092"/><path fill-rule="evenodd" clip-rule="evenodd" d="M34.798 247.8c-1.2-.4-2.6-.8-3.7-1.3-1.2-.6-2.1-1.2-3-2.1.9-1.9 2.1-5 2.9-6.7.8-1.7 1.8-1.1 2.9-1.3 1.7-.4 5.6-.9 6.1.9.1.2-.1.4-.2.6-1.7 3.3-3.6 6.5-5 9.9z" fill="#F38A7C"/><path fill-rule="evenodd" clip-rule="evenodd" d="M44.797 267.1c.3-2-.9-3-2.1-4.9-1.2-1.8-4.1-5.1-5.5-7-1.1-1.5-1.5-2-2.5-3.3.6-.5.7-.6 1.3-1.2.6-.6.9-1.5-.4-1.9-.9-.3-2.2-.8-3-.3-.8.5-.5.9-.7 1.7-.2.9-.4 1.9-1.8 2-.9.1-2.2-.4-3.1-1.1-.9-.7-1.8-1.6-2.5-2.5-.5.5-.7.6-1.1 1.2-.4.6-1 1.4-1.5 2.4-.4 1-.8 2 .1 3.1.8 1.1 3 2.3 4.1 2.9 1.1.6 1.2 0 1.9.1s.3-.5.9.4c.7.9 1 1.6 2.5 3.1s7 5.2 8.9 6c2.1.9 4.2 1.3 4.5-.7z" fill="#7427CA"/><path fill-rule="evenodd" clip-rule="evenodd" d="M38.8 256.4c.2.4.1.4-.4.5-.5.2-1.9.4-2.6.5-.7.1-1.5.2-2-.1-.5-.3-.2-.6.4-.9.6-.2 2.5-.5 3.2-.5.8 0 1.1.1 1.4.5zM40.597 259.1c.2.3.1.3-.3.4-.4.2-1.5.4-2 .4s-1.2.2-1.6-.1c-.4-.3-.2-.5.3-.7.5-.2 2-.4 2.5-.4.6.1.9.1 1.1.4zM37.297 253.8c.3.4.1.4-.4.6-.6.2-2.2.5-3 .5-.8 0-1.7.2-2.3-.2-.6-.4-.2-.7.5-1 .7-.3 2.9-.5 3.7-.5.8 0 1.2.1 1.5.6z" fill="#fff"/><path fill-rule="evenodd" clip-rule="evenodd" d="M27.899 258.4c-.7-.1-.8.5-1.9-.1-1.1-.6-3.3-1.7-4.1-2.9-.8-1.2-.6-1.9 0-3.1 0-.1 0 0 .1-.2.1-.1.4-.6.5-.8 0 .4-.2.5-.2.9 0 .5-.1.8.3 1.4.4.6.7 1.1 1.7 1.7.3.2 2.1 1.2 2.8 1.6.7.4 1.5.3 2.2.9 1.3 1.1 2.5 2.5 4 3.6 1.5 1.2 4.2 3 5.6 3.9 1.4.9 3.6 1.7 4.5 1.6 1.5-.1 1.1-.5 1.6-1.2-.2.7.6.5.1 1.4-.9 1.6-2.4 1.6-4.8.6-2.1-.8-7.4-4.5-8.9-6s-1.8-2.2-2.5-3.1c-.7-.7-.2-.1-1-.2z" fill="#5D19AB"/><path fill-rule="evenodd" clip-rule="evenodd" d="M35.498 213.3c3.1-10.8 5.2-18.9 7.2-31.1 2-12.2 5.4-29.5 5.2-42.7 8.9-.6 17.6-1.7 26.6-2.1-2.5 10.1-3 13.3-6 25.1-3 11.7-8.3 31.3-13.7 44.2-5.4 12.9-10.7 26.1-16.2 38.9-4.1-1.9-8.1-3.9-12.2-5.7 3.4-9.1 6.5-17.3 9.1-26.6z" fill="#3384FF"/><path opacity=".17" fill-rule="evenodd" clip-rule="evenodd" d="M89.198 153l-15.2 2.7c-2.7-9.3-5.1-17.3-5.1-17.3l18.9.6 3.4 10.8c.3 1.5-.6 2.9-2 3.2z" fill="#270D45"/><path fill-rule="evenodd" clip-rule="evenodd" d="M167.401 150h-40.4c-.6 0-1.2.5-1.2 1.1v8.7c0 .6.5 1.1 1.2 1.1h40.4c.6 0 1.2-.5 1.2-1.1v-8.7c0-.6-.5-1.1-1.2-1.1z" fill="#fff"/><path d="M131.499 155.7c1 0 1.8-.8 1.8-1.8s-.8-1.8-1.8-1.8-1.8.8-1.8 1.8.8 1.8 1.8 1.8z" fill="#8BB9FF"/><path fill-rule="evenodd" clip-rule="evenodd" d="M131.5 156.2c-1.4 0-2.5 1.1-2.5 2.5h5c0-1.4-1.1-2.5-2.5-2.5z" fill="#8BB9FF"/><path d="M188.499 240.3c3.2 0 5.8-2.6 5.8-5.8 0-3.2-2.6-5.8-5.8-5.8-3.2 0-5.8 2.6-5.8 5.8.1 3.2 2.7 5.8 5.8 5.8z" fill="#DEEBFF"/><path fill-rule="evenodd" clip-rule="evenodd" d="M185.102 234.3l3.4 3.4c1.6-2.8 3.3-5.6 4.9-8.5-.4-.2-.7-.4-1.1-.6-1.4 2.3-2.7 4.7-4 7l-2.2-2.2c-.4.3-.7.6-1 .9z" fill="#5597FF"/><path d="M220.499 106.8a3.3 3.3 0 10.001-6.599 3.3 3.3 0 00-.001 6.599z" fill="#fff"/><path d="M219.002 104.2h3.1l.8 7c0 .3-.2.5-.4.5h-3.9c-.3 0-.5-.2-.4-.5l.8-7z" fill="#fff"/><path d="M193.602 187h57.6m-57.6-23.9h57.6-57.6zm0 11.6h57.6-57.6z" stroke="#8BB9FF" stroke-width="2" stroke-linecap="round"/><path d="M232.199 166.6a3.5 3.5 0 100-7 3.5 3.5 0 000 7zM208.301 177.8a3.5 3.5 0 100-7 3.5 3.5 0 000 7zM228 190.5a3.5 3.5 0 100-7 3.5 3.5 0 000 7z" fill="#fff" stroke="#8BB9FF" stroke-width="2"/><path fill-rule="evenodd" clip-rule="evenodd" d="M130.3 203.4h29.2c2.1 0 3.8 1.7 3.8 3.8v29.2c0 2.1-1.7 3.8-3.8 3.8h-29.2c-2.1 0-3.8-1.7-3.8-3.8v-29.2c-.1-2 1.6-3.8 3.8-3.8z" fill="#DEEBFF"/><path fill-rule="evenodd" clip-rule="evenodd" d="M162.5 236.6h-27.2c-2.7 0-4.8-2.1-4.8-4.8v-27.2c0-2.7 2.1-4.8 4.8-4.8h27.2c2.7 0 4.8 2.1 4.8 4.8v27.2c0 2.7-2.2 4.8-4.8 4.8z" fill="#fff"/><path fill-rule="evenodd" clip-rule="evenodd" d="M159.598 221c-1.7 0-3.2-.8-4.2-2v.3c0 2.3 1.9 4.2 4.2 4.2 2.3 0 4.2-1.9 4.2-4.2v-.3c-1 1.2-2.5 2-4.2 2z" fill="#FFB726"/><path fill-rule="evenodd" clip-rule="evenodd" d="M159.598 227.2c2.3 0 4.2-1.9 4.2-4.2v-.3c-1 1.2-2.5 2-4.2 2-1.7 0-3.2-.8-4.2-2v.3c0 2.3 1.9 4.2 4.2 4.2z" fill="#FFB726"/><path fill-rule="evenodd" clip-rule="evenodd" d="M159.598 228.3c-1.7 0-3.2-.8-4.2-2v1c0 2.3 1.9 4.2 4.2 4.2 2.3 0 4.2-1.9 4.2-4.2v-1c-1 1.2-2.5 2-4.2 2z" fill="#FFB726"/><path d="M159.598 219.9c2.3 0 4.2-1.9 4.2-4.2 0-2.3-1.9-4.2-4.2-4.2-2.3 0-4.2 1.9-4.2 4.2 0 2.3 1.9 4.2 4.2 4.2z" fill="#FFB726"/><path fill-rule="evenodd" clip-rule="evenodd" d="M149.098 221c-1.7 0-3.2-.8-4.2-2v.3c0 2.3 1.9 4.2 4.2 4.2 2.3 0 4.2-1.9 4.2-4.2v-.3c-1 1.2-2.5 2-4.2 2z" fill="#FFB726"/><path fill-rule="evenodd" clip-rule="evenodd" d="M149.098 217.4c-1.7 0-3.2-.8-4.2-2v.3c0 2.3 1.9 4.2 4.2 4.2 2.3 0 4.2-1.9 4.2-4.2v-.3c-1 1.2-2.5 2-4.2 2zM149.098 227.2c2.3 0 4.2-1.9 4.2-4.2v-.3c-1 1.2-2.5 2-4.2 2-1.7 0-3.2-.8-4.2-2v.3c0 2.3 1.9 4.2 4.2 4.2z" fill="#FFB726"/><path fill-rule="evenodd" clip-rule="evenodd" d="M149.098 228.3c-1.7 0-3.2-.8-4.2-2v1c0 2.3 1.9 4.2 4.2 4.2 2.3 0 4.2-1.9 4.2-4.2v-1c-1 1.2-2.5 2-4.2 2z" fill="#FFB726"/><path d="M149.098 212.5c2.3 0 4.2-1.9 4.2-4.2 0-2.3-1.9-4.2-4.2-4.2-2.3 0-4.2 1.9-4.2 4.2 0 2.4 1.9 4.2 4.2 4.2z" fill="#FFB726"/><path fill-rule="evenodd" clip-rule="evenodd" d="M149.098 213.7c-1.7 0-3.1-.7-4.2-1.9v.5c.1 2.2 2 3.9 4.2 3.9s4.1-1.7 4.2-3.9v-.5c-1 1.2-2.5 1.9-4.2 1.9zM138.399 227.2c2.3 0 4.2-1.9 4.2-4.2v-.3c-1 1.2-2.5 2-4.2 2-1.7 0-3.2-.8-4.2-2v.3c0 2.3 1.8 4.2 4.2 4.2z" fill="#FFB726"/><path fill-rule="evenodd" clip-rule="evenodd" d="M138.399 228.3c-1.7 0-3.2-.8-4.2-2v1c0 2.3 1.9 4.2 4.2 4.2 2.3 0 4.2-1.9 4.2-4.2v-1c-1 1.2-2.6 2-4.2 2z" fill="#FFB726"/><path d="M138.399 223.5c2.3 0 4.2-1.9 4.2-4.2 0-2.3-1.9-4.2-4.2-4.2-2.3 0-4.2 1.9-4.2 4.2 0 2.3 1.8 4.2 4.2 4.2z" fill="#FFB726"/><path d="M238.303 29.2h-99.6c-5 0-9 3.5-9 7.9V117c0 4.4 4 7.9 9 7.9h99.6c5 0 9-3.5 9-7.9V37.1c0-4.4-4-7.9-9-7.9z" fill="#D8F3FF" stroke="#3383FF" stroke-width="2"/><path d="M247.502 40.9v-3.2c0-4.8-4-8.7-9-8.7h-99.9c-5 0-9 3.9-9 8.7v3.2h117.9z" fill="#3383FF"/><path d="M137.3 36.8c1 0 1.8-.8 1.8-1.8s-.8-1.8-1.8-1.8-1.8.8-1.8 1.8c-.1 1 .8 1.8 1.8 1.8z" fill="#F9B42B"/><path d="M143.8 36.8c1 0 1.8-.8 1.8-1.8s-.8-1.8-1.8-1.8-1.8.8-1.8 1.8.8 1.8 1.8 1.8z" fill="#EF8361"/><path d="M150.3 36.8c1 0 1.8-.8 1.8-1.8s-.8-1.8-1.8-1.8-1.8.8-1.8 1.8.8 1.8 1.8 1.8z" fill="#90B4E0"/><path d="M160.4 46.2H136v23.1h24.4V46.2zM160.4 79.2H136v23.1h24.4V79.2z" fill="#5699FF"/><path d="M167.898 47.8h67.8M211.998 56.7h-44.1" stroke="#8BB9FF" stroke-width="2" stroke-linecap="round"/><path d="M202.899 64.1c-4.8 3.8-11.4 6.9-18.6 8.5l-.1 14.1c0 6.4 2.8 12.3 8.6 17.3 3.8 3.4 7.7 5.3 9.8 6.3.1 0 .2-.1.3-.1V64.1z" fill="#91B3FA"/><path d="M202.898 64.1v46.1c2.1-1 5.9-2.9 9.6-6.1 5.9-5 8.8-10.8 8.8-17.3l.1-14.1c-7.1-1.6-13.8-4.8-18.5-8.6z" fill="#BDD0FB"/><path d="M230.5 96.4H228v-1.2c0-4.1-3.4-7.5-7.5-7.5s-7.5 3.4-7.5 7.5v1.2h-2.5v-1.2c0-5.6 4.5-10 10-10 5.6 0 10 4.5 10 10v1.2z" fill="#B284E4"/><path d="M208.398 96.2v17.9c0 2 24.3 2 24.3 0V96.2h-24.3z" fill="#B284E4"/><path d="M138.601 78.8c1.8-2.7 4.4-6 7.1-7.5 2.7-1.6 3.8-3.9 4.8-6.6 2-.2 1.2-1.2 1.7-2.9.3-1.1-.5-1.4-.1-2.6.3-1.2-1.3-1.7-1.5-2.7-.1-.9-.6-1.3-1.3-1.8.6-.4.2-.2 1.1-.8.8-.6 5.8-1.3 6-2.5.2-1.2-6.3-.3-8.1.7-1.8 1-3.3 1.4-5 4.1-.4.6-.7 1.3-1.1 2.1-1.3 2.8-2.4 6.4-3 9-.7 3.3-3.5 5.8-5.4 8.4" fill="#FDB092"/><path fill-rule="evenodd" clip-rule="evenodd" d="M78.598 72.6c3.3 4.8 6.5 10.1 10.9 15.2s16.5 17.4 21.5 17.4 8.6-3.3 13.9-9.2c5.3-5.9 17.5-19.7 17.5-19.7l-6.4-6.4s-5.8 6.1-11.2 9.8c-5.4 3.6-13.7 8.6-13.7 8.6s-16.5-20.3-20.3-24.4c-3.8-4.1-6.6-5.9-9.8-6.8 0 0-5.7 10.7-2.4 15.5z" fill="#DA9A2B"/><path fill-rule="evenodd" clip-rule="evenodd" d="M142.4 76.3s-2 2.3-4.8 5.4l-6.6-7c2.9-2.6 5.1-4.9 5.1-4.9l6.3 6.5z" fill="#FFB726"/><path d="M140.301 63.2c-1.4-3.9 4-11.6 4.4-12.1.4-.6 1.5 2.2 0 4.5-1.8 2.6-.8 3.7-.8 3.7" fill="#FDB092"/><path d="M157.699 124.9v11.8c0 4.9 3.9 8.8 8.8 8.8h97.9" stroke="#3383FF" stroke-width="2" stroke-miterlimit="10" stroke-linecap="round" stroke-linejoin="round" stroke-dasharray="8 8"/><path d="M247.5 53h4" stroke="#3383FF" stroke-width="2" stroke-linecap="round" stroke-linejoin="round"/><path d="M260.102 53h32.9c4.3 0 7.8 3.5 7.8 7.8v19.8" stroke="#3383FF" stroke-width="2" stroke-linecap="round" stroke-linejoin="round" stroke-dasharray="8.66 8.66"/><path d="M300.801 84.9v4" stroke="#3383FF" stroke-width="2" stroke-linecap="round" stroke-linejoin="round"/><path d="M339.702 93.1h-73.5c-3.7 0-6.6 2.6-6.6 5.8v67.4c0 3.2 3 5.8 6.6 5.8h73.5c3.7 0 6.6-2.6 6.6-5.8V98.9c0-3.2-3-5.8-6.6-5.8z" fill="#8BB9FF"/><path d="M344.799 88.9h-73.5c-3.7 0-6.6 2.6-6.6 5.8v67.4c0 3.2 3 5.8 6.6 5.8h73.5c3.7 0 6.6-2.6 6.6-5.8V94.8c0-3.3-2.9-5.9-6.6-5.9z" fill="#D8F3FF"/><path d="M351.501 97.6v-2.4c0-3.6-3-6.5-6.7-6.5h-73.8c-3.7 0-6.7 2.9-6.7 6.5v2.4h87.2z" fill="#3383FF"/><path d="M270.201 94.6c.7 0 1.4-.6 1.4-1.3 0-.7-.6-1.3-1.4-1.3-.7 0-1.4.6-1.4 1.3 0 .7.6 1.3 1.4 1.3z" fill="#F9B42B"/><path d="M275.002 94.6c.7 0 1.4-.6 1.4-1.3 0-.7-.6-1.3-1.4-1.3-.7 0-1.4.6-1.4 1.3 0 .7.6 1.3 1.4 1.3z" fill="#EF8361"/><path d="M279.798 94.6c.7 0 1.4-.6 1.4-1.3 0-.7-.6-1.3-1.4-1.3-.7 0-1.4.6-1.4 1.3.1.7.7 1.3 1.4 1.3z" fill="#90B4E0"/><path d="M324.5 134.3l-5.5-5.5m5.5-13.4v18.9-18.9zm0 18.9l5.5-5.5-5.5 5.5z" stroke="#93AFDB" stroke-width="2" stroke-linecap="round" stroke-linejoin="round"/><path d="M300.5 137.6s4.1 2.2 10.8 4.3c6.8 2.1 9.4 10.4 8.5 18.3H272c-.9-7.9 1.7-16.2 8.5-18.3 6.7-2.1 10.8-4.3 10.8-4.3l4.6.4 4.6-.4z" fill="#3383FF"/><path d="M301.898 130.1l-5.7-.6-5.7.6s1 5.4-.6 9.5c0 0 1.9 2.4 6.2 2.4 4.3 0 6.2-2.4 6.2-2.4-1.4-4.2-.4-9.5-.4-9.5z" fill="#DEEBFF"/><path d="M301.9 130.1l-5.7-.6-5.7.6s.3 1.7.3 3.9c1.9 3.7 8.5 3.9 10.8 1.8-.2-3.1.3-5.7.3-5.7z" fill="#BDD0FB"/><path d="M295.898 109.3c-5.7 0-9.5 4.6-9.5 10.4 0 4.3 2.1 10.5 5.6 13.3 1.2 1 3.3 1.2 3.9 1.2.6 0 2.7-.2 3.9-1.2 3.5-2.8 5.6-9 5.6-13.3 0-5.7-3.7-10.4-9.5-10.4z" fill="#DEEBFF"/><path d="M302.599 112c0-1.8-3-3.3-6.7-3.3s-6.7 1.5-6.7 3.3c0 1.8 3 3.3 6.7 3.3 3.7.1 6.7-1.4 6.7-3.3z" fill="#CDAFED"/><path d="M291.401 113.1s-4.7 2.1-4.5 10.3c0 0-1.1-2.7-.9-6.6.2-3.9 4.3-6.5 4.3-6.5l1.1 2.8zM300.398 113.1s4.7 2.1 4.5 10.3c0 0 1.1-2.7.9-6.6-.2-3.9-4.3-6.5-4.3-6.5l-1.1 2.8z" fill="#CDAFED"/><path d="M288.3 111.4s-.4-2.4 3-4c5.1-2.5 12.9.5 14.2 8.6-.1 0-8.5-6.1-17.2-4.6z" fill="#CDAFED"/><path d="M289.902 110.3s-1.2-.9-3.1 1.1c-2 2.1-.8 7.7-.8 7.7s2.5-7.5 5.4-7.9c2.9-.4-1.9-.9-1.9-.9M301.798 110.3s1.2-.9 3.1 1.1c2 2.1.8 7.7.8 7.7s-2.5-7.5-5.4-7.9c-2.9-.4 1.9-.9 1.9-.9" fill="#CDAFED"/><path d="M308.9 124c-.3 2.6-2.8 4.5-4.1 4.4-1.3-.2-1-2.3-.7-4.9.3-2.6.4-4.8 1.8-4.6 1.3.1 3.3 2.5 3 5.1z" fill="#8D66D9"/><path d="M305.3 123.5c.2-2.2.4-4 1.1-4.5-.2-.1-.4-.1-.5-.2-1.3-.2-1.5 2-1.8 4.6-.3 2.6-.6 4.8.7 4.9.2 0 .5 0 .8-.1-.9-.4-.6-2.4-.3-4.7z" fill="#fff"/><path d="M282.999 124c.3 2.6 2.8 4.5 4.1 4.4 1.3-.2 1-2.3.7-4.9-.3-2.6-.4-4.8-1.8-4.6-1.3.1-3.3 2.5-3 5.1z" fill="#8D66D9"/><path d="M287.8 123.5c-.3-2.6-.4-4.8-1.8-4.6-.2 0-.3.1-.5.2.8.5.9 2.4 1.1 4.5.3 2.4.6 4.3-.4 4.8.3.1.6.1.8.1 1.4-.3 1.1-2.4.8-5z" fill="#fff"/><path d="M306.801 120.5l-.8-.3c0-.1 2.5-7.8-1-12.5-1.8-2.5-4.9-3.7-9.2-3.7-4.3 0-7.4 1.3-9.2 3.7-3.4 4.7-1 12.5-1 12.5l-.8.3c-.1-.3-2.6-8.2 1.1-13.3 2-2.7 5.3-4.1 9.9-4.1 4.6 0 7.9 1.4 9.9 4.1 3.8 5 1.2 12.9 1.1 13.3z" fill="#8D66D9"/><path d="M287.4 107.5c-.4 0-.7-.1-.9-.4-.5-.5-.5-1.3.1-1.8 2.2-2 5.3-3.1 9.4-3.1 4 0 7.1 1 9.3 3 .5.5.6 1.3.1 1.8s-1.3.6-1.8.1c-1.7-1.5-4.2-2.3-7.5-2.3-3.4 0-5.9.8-7.6 2.4-.5.2-.8.3-1.1.3z" fill="#719DFC"/><path d="M297 132.6v-.6c4 0 7-1 8.6-3 1.2-1.4 1.2-2.9 1.2-2.9h.6c0 .1-.1 1.7-1.4 3.2-1.2 1.6-3.8 3.3-9 3.3z" fill="#8D66D9"/><path d="M298.401 132.2c0 .6-.8 1.1-1.8 1.1s-1.8-.5-1.8-1.1c0-.6.8-1.1 1.8-1.1.9 0 1.8.5 1.8 1.1z" fill="#8D66D9"/><path d="M272.999 147.6h29.6c1.6 0 2.9 1.3 2.9 2.9v6.9c0 1.6-1.3 2.9-2.9 2.9h-29.6c-1.6 0-2.9-1.3-2.9-2.9v-6.9c-.1-1.5 1.2-2.9 2.9-2.9z" fill="#fff"/><path d="M275 155.4h21m-21-3.1h25-25z" stroke="#DEEBFF" stroke-linecap="round" stroke-linejoin="round"/><path d="M138.398 155.7h27.4-27.4z" fill="#fff"/><path d="M138.398 155.7h27.4" stroke="#8FD1FF" stroke-linecap="round" stroke-linejoin="round"/><path fill-rule="evenodd" clip-rule="evenodd" d="M167.401 164.8h-40.4c-.6 0-1.2.5-1.2 1.1v8.7c0 .6.5 1.1 1.2 1.1h40.4c.6 0 1.2-.5 1.2-1.1v-8.7c0-.6-.5-1.1-1.2-1.1z" fill="#fff"/><path d="M131.499 170.5c1 0 1.8-.8 1.8-1.8s-.8-1.8-1.8-1.8-1.8.8-1.8 1.8.8 1.8 1.8 1.8z" fill="#8BB9FF"/><path fill-rule="evenodd" clip-rule="evenodd" d="M131.5 171c-1.4 0-2.5 1.1-2.5 2.5h5c0-1.4-1.1-2.5-2.5-2.5z" fill="#8BB9FF"/><path fill-rule="evenodd" clip-rule="evenodd" d="M167.401 179.7h-40.4c-.6 0-1.2.5-1.2 1.1v8.7c0 .6.5 1.1 1.2 1.1h40.4c.6 0 1.2-.5 1.2-1.1v-8.7c0-.6-.5-1.1-1.2-1.1z" fill="#fff"/><path d="M131.499 185.4c1 0 1.8-.8 1.8-1.8s-.8-1.8-1.8-1.8-1.8.8-1.8 1.8c0 .9.8 1.8 1.8 1.8z" fill="#8BB9FF"/><path fill-rule="evenodd" clip-rule="evenodd" d="M131.5 185.8c-1.4 0-2.5 1.1-2.5 2.5h5c0-1.3-1.1-2.5-2.5-2.5z" fill="#8BB9FF"/><path d="M335.5 115.4l5.5 5.5m-5.5 13.4v-18.9 18.9zm0-18.9l-5.5 5.5 5.5-5.5z" stroke="#93AFDB" stroke-width="2" stroke-linecap="round" stroke-linejoin="round"/><path fill-rule="evenodd" clip-rule="evenodd" d="M45 71.9c.6 7.8 2.8 17.7 2.7 34.9-.1 7.6-.6 16.1-.5 23.5.2 6.5.8 14.1.8 14.1s17.6-.3 28.7-1.8c9-1.3 16.5-3.3 16.5-3.3s-1.2-5.5-2.7-14.2c-1.5-8.8-2.2-14.8-1.3-24.8.9-10.4 2.8-24 2.5-31.9-.2-5.1-4.9-8.8-9.7-11.6-2.9-1.7-7-3.6-10.5-3.7-3-.1-5.7.3-11.4 2.4-5 1.8-10.8 4.7-13 6.8-1.6 1.6-2.6 3.9-2.1 9.6z" fill="#FFD447"/><path fill-rule="evenodd" clip-rule="evenodd" d="M29.1 135.6c.5 2.2.4 4.4 1.4 6.2 1 1.8 2.4 3.5 3.1 5.1.7 1.6 1.2 4.4 1.3 5.3.3 1.5.7 2.4-.1 3.1-.8.7-1.3-.5-1.8-1.3-.1-.2-.8-2-1-2.6-.1-.3-.3-1.9-1-1.8-.7.1-.6 1.1-.6 1.9.1 1.6.5 5 1.1 6.5.3.8.6.8.8.9.7.4.9.3 1.5.6-.5.6-.7.8-1.8.8-.4 0-2.3-.5-2.6-1.3-.6 0-.9-.1-1.4-.3-.5-.2-1.1-.5-1.5-.9-.6.2-1.2.1-1.8 0-.6-.1-1-.5-1.3-.9-.4-.2-.7.1-1.1-.2-1.1-.8-1.5-.7-1.5-2.8 0-2 .4-4.4 1-7.3.5-2.5 1.2-7.5 1-10.5 1.5-1 5.8-2.7 6.3-.5z" fill="#FDB092"/><path fill-rule="evenodd" clip-rule="evenodd" d="M18.301 97.8c-2.1 4.5-.8 17.5.6 24.4.7 3.5 1.6 11.1 2.9 15 2.9.2 5.9.2 8.8.2 1.1-6.4 1.7-16 1.9-21.7.2-5.7.1-7.4 1.9-12 .7-1.9 1.6-2.9 3-4.9 3.4-5.2 9.5-13.6 12.6-18.3 3.1-4.8 4.7-7 4.8-11.7 0-3-1.3-5.1-4.3-6.1-1.8-.6-2.7-1.1-5.5 1.1-8.8 6.7-16.2 17.9-22.9 27.9-1.5 1.9-1.7 1.6-3.8 6.1z" fill="#FFB726"/><path fill-rule="evenodd" clip-rule="evenodd" d="M21.1 139.5c3.5-.2 7-.3 10.5-.5l.6-7.2c-4.1.4-8.2.7-12.4 1.1.4 2.2.9 4.4 1.3 6.6z" fill="#FFB726"/><path fill-rule="evenodd" clip-rule="evenodd" d="M77.902 54.5c.2 1.3.3 2.2-.4 3.6-.6 1.4-1.3 2.4-1.4 3.2-.2.8-.1 1.5-.1 1.5s.2-.8.6-1.3c.5-.6.9.4 1.5 1.1.6.8 1.4 2.3 1.4 2.3s.1-1.4.2-3 0-3.5-.3-5.7-.9-2.8-1.8-3.4c0 .1.2.9.3 1.7z" fill="#fff"/><path fill-rule="evenodd" clip-rule="evenodd" d="M82.7 26.9c-1.6-.8-5.2-1.4-8.6-1.1-3.5.4-6.9 1.8-7.9 5.5s.3 9.7.5 13.7c.2 3.3-.6 6.4-2.1 9.1-.3.6.3 2.5.9 2.9 2.5 1.6 4.7 2.7 6.9 3.2 3.3.9 3.6 2.6 3.6 2.6s.1-.9.7-2.3c.7-1.6 1.8-3.8 1.7-4.3-.7-2.2-1-4.8-.4-6.3.9.5 1.8.9 3 .6 1.3-.4 2.9-1.5 3.3-3.3.5-1.9-.3-4.6-.6-7.7-.4-3.1-.4-6.6-.2-8.9.2-2.3.7-2.9-.8-3.7z" fill="#FDB092"/><path fill-rule="evenodd" clip-rule="evenodd" d="M82.9 35.3c-.2 1.1-.2 2.9-.1 4.2.1 1.3.2 2 .5 2.4.3.4.9.4 1.3.3.5-.1.8-.2 1.1-.3.3-.1.6-.3.3-1-.2-.8-.9-2.2-1.4-3.6-.5-1.4-.8-2.8-1-3.2-.3-.5-.6 0-.7 1.2z" fill="#EB6767"/><path fill-rule="evenodd" clip-rule="evenodd" d="M84 31.5c0-.3-.1-.5-.2-.6-.2-.1-.3-.1-.4-.2-.1-.1 0-.2-.3-.2-.3-.1-1-.1-1.8 0-.8.2-1.6.4-2.3.7-.6.3-1 .7-1.2.9-.2.3-.1.4.4.4.5-.1 1.3-.3 2.2-.3 1-.1 2.1.1 2.7-.1.6-.2.9-.3.9-.6z" fill="#5D19AB"/><path fill-rule="evenodd" clip-rule="evenodd" d="M74.001 36.6c.2 1.6.5 2.2 1.4 2.8.9.6 2.3 1.1 3.8 1.5 1.6.4 3.2.7 4.9 1 .7 2.7 1.4 5.3 1.6 6.8.2 1.5-.2 1.9-.9 2.2-.7.3-1.8.5-2.9.5-1.1 0-2.2-.3-3.9-.8-1.7-.5-3.8-1.3-5.1-2.1-1.3-.8-1.6-1.7-1.8-3.1-.2-1.4-.3-3.2-.4-5.1.5.1.9.2 1.4.3-.1-1-.2-2.1-.3-2.9-.1-.9-.2-1.6-.3-2.3-.7-.4-1.4-.8-2.1-.8-.7.1-1.4.5-1.6 1.2-.3.7-.2 1.7.2 2.4.3.7.9 1.1 1.4 1.5-.1.2-.1.4-.6 1-.5.7-1.5 1.7-2.4 2.8-.6-.7-1.1-1.4-1.9-3.7-.8-2.3-1.9-6.3-2.2-8.8-.3-2.5.3-3.4 1.1-4.1.8-.7 1.8-1.2 2.3-2.2.5-1.1.6-2.8 1.2-3.9s1.8-1.5 3.4-1.5c1.6.1 3.6.5 5.5.4 1.9-.1 3.6-.7 5.6-1.4 2-.8 4.1-1.6 6-1.5 1.9.1 3.5.9 4.2 2.7.7 1.8.3 4.5-1.1 6.3-1.4 1.8-3.7 2.6-5.9 2.9-2.2.3-4.2 0-5.9.2-1.7.2-3.2.7-4.7 1.2 0 2.6-.1 5.1 0 6.5z" fill="#7427CA"/><path d="M88.901 24.6c.9-.5 1.8-1.1 2.5-2.1.6-1 .9-2.5.8-3.7-.2-1.3-.9-2.2-2.1-2.8-1.3-.6-3.1-.8-4.8-.4-1.2.3-2.4.8-3.6 1.3l-1.5.6c-1.5.6-2.9.9-4.1.9-1.2.1-2.3-.3-3.5-.5-.3-.1-.6.1-.7.4-.1.3.1.6.4.7 1.2.3 2.4.6 3.7.6 1.4 0 2.9-.4 4.5-1l1.5-.6c1.1-.5 2.3-1 3.4-1.2 1.4-.3 3-.2 4.1.3.9.4 1.4 1.1 1.5 2 .2 1-.1 2.2-.6 3-.5.8-1.3 1.2-2.1 1.7-.3.1-.4.5-.2.7.1.2.3.3.5.3.2-.1.3-.1.3-.2zM66.6 41.9c.3-.2.4-.5.2-.8-1.2-2-2.5-4.1-3.3-6.1-.8-1.8-1.3-3.8-1.4-5.4-.1-1.4.2-1.9.8-2.3.8-.5 2.3-.9 3.7-1.3.3-.1.4-.4.4-.7-.1-.3-.4-.5-.7-.4-1.5.4-3 .8-4 1.5s-1.4 1.7-1.3 3.3c.2 1.7.7 3.8 1.5 5.7.9 2.1 2.2 4.2 3.4 6.3.1.2.3.3.5.3.1 0 .2 0 .2-.1z" fill="#7427CA"/><path fill-rule="evenodd" clip-rule="evenodd" d="M77.702 52.6c-3.2-.8-5.9-2-7.9-3.6-1.2-1-2.2-2.1-3-3.4-.1-.2-.1-.5-.1-.7 0-.5-.1-.9-.1-1.4 1-1.1 1.9-2.2 2.4-2.8.5-.6.6-.8.6-1l1.2.7c.1 1.9.2 3.8.4 5.1.2 1.4.5 2.3 1.8 3.1 1.2.8 3.1 1.5 4.7 2 0 .6-.1 1.3 0 2zM83.7 30.3c.1-.6.1-1 .2-1.4-1.8.2-3.5-.1-5 .1-1.7.2-3.2.7-4.8 1.2-.1.4-.1.7-.1 1 .7-.3 1.4-.5 2.2-.7 1.6-.3 3.7-.5 6.2-.3.5.1.9.1 1.3.1z" fill="#F48B7C"/><path fill-rule="evenodd" clip-rule="evenodd" d="M69.598 63c-1.4-1.4-4.1-4.4-5.1-6.2-.9-1.9-1.1-3.2-.2-4.7.7-1.2 1.8-1.7 1.8-1.7s-.1.4-.4 1.2c-.3.8-.6 2.2 1.7 4.6 2.3 2.4 5.6 3.9 7.3 5.1 1.3.9 1.2 1.7 1.2 1.7s-.4-1-1-.9c-.6.2-.8.7-1.4 1.5-.6.8-1.4 2.5-1.4 2.7.2-.1-.6-1.5-2.5-3.3z" fill="#fff"/><path d="M138.398 170.4h27.4-27.4z" fill="#fff"/><path d="M138.398 170.4h27.4" stroke="#8FD1FF" stroke-linecap="round" stroke-linejoin="round"/><path d="M138.398 185.4h27.4-27.4z" fill="#fff"/><path d="M138.398 185.4h27.4" stroke="#8FD1FF" stroke-linecap="round" stroke-linejoin="round"/><path d="M161.301 180.7c0 7.3 5.8 13.3 13.2 13.4 7.4.1 13.5-5.8 13.6-13.2.1-7.4-5.8-13.5-13.1-13.6-7.5-.1-13.7 5.8-13.7 13.4z" fill="#fff" stroke="#8BB9FF" stroke-width="2"/><path d="M166.801 180.7h15.8M174.699 174.5v12.4" stroke="#8BB9FF" stroke-width="2" stroke-linecap="round"/></g><defs><linearGradient id="paint0_linear" x1="299.322" y1="99.052" x2="82.961" y2="299.415" gradientUnits="userSpaceOnUse"><stop stop-color="#5699FF"/><stop offset="1" stop-color="#7427CA"/></linearGradient><linearGradient id="paint1_linear" x1="303.706" y1="11.758" x2="-101.304" y2="99.363" gradientUnits="userSpaceOnUse"><stop stop-color="#5699FF"/><stop offset="1" stop-color="#7427CA"/></linearGradient><clipPath id="clip0"><path fill="#fff" d="M0 0h369v280H0z"/></clipPath></defs></svg>